<svg width="720" height="720" viewBox="0 0 720 720" fill="none" xmlns="http://www.w3.org/2000/svg">
<rect width="720" height="720" fill="#1C1C1C"/>
<g clip-path="url(#clip0_893_8)">
<path d="M72 106C262.08 106 452.16 106 648 106C648 273.64 648 441.28 648 614C457.92 614 267.84 614 72 614C72 446.36 72 278.72 72 106Z" fill="#1C1C1C"/>
<path d="M396.812 249.145C414.677 249.145 432.542 249.145 450.948 249.145C450.948 323.73 450.948 398.316 450.948 475.161C433.083 475.161 415.219 475.161 396.812 475.161C396.812 400.576 396.812 325.99 396.812 249.145Z" fill="#F1F1F1"/>
<path d="M127.219 250.221C148.299 250.221 169.379 250.221 191.098 250.221C201.875 275.785 212.437 301.414 222.754 327.164C224.819 332.315 226.888 337.465 228.957 342.615C230.642 346.811 232.326 351.008 234.003 355.207C236.894 362.436 239.796 369.659 242.784 376.849C244.031 379.854 245.27 382.862 246.508 385.87C247.087 387.268 247.671 388.665 248.261 390.059C249.066 391.965 249.854 393.878 250.64 395.791C251.088 396.861 251.536 397.932 251.997 399.034C253.432 404.209 251.459 408.404 249.688 413.312C249.269 414.48 248.849 415.648 248.417 416.852C247.962 418.105 247.508 419.358 247.04 420.65C246.571 421.952 246.102 423.254 245.619 424.596C244.373 428.057 243.122 431.516 241.87 434.975C240.611 438.457 239.356 441.941 238.101 445.425C234.007 456.781 229.902 468.133 225.745 479.466C225.03 479.466 224.316 479.466 223.58 479.466C223.097 478.318 222.614 477.17 222.117 475.987C212.294 452.619 202.438 429.266 192.516 405.94C186.19 391.067 179.902 376.178 173.64 361.278C167.307 346.211 160.925 331.166 154.489 316.142C143.699 290.943 143.699 290.943 138.614 278.932C138.023 277.536 137.43 276.14 136.837 274.745C136.023 272.831 135.214 270.916 134.404 269.001C133.955 267.939 133.505 266.877 133.041 265.783C130.981 260.641 129.121 255.422 127.219 250.221Z" fill="#F3F3F3"/>
<path d="M235.492 250.221C255.858 250.221 276.224 250.221 297.206 250.221C302.078 259.907 302.078 259.907 303.543 263.489C304.045 264.71 304.045 264.71 304.557 265.955C304.906 266.813 305.255 267.671 305.614 268.555C306.183 269.941 306.183 269.941 306.763 271.355C307.577 273.341 308.389 275.328 309.201 277.315C310.495 280.487 311.794 283.657 313.094 286.827C314.882 291.187 316.668 295.547 318.453 299.907C321.816 308.119 325.197 316.323 328.583 324.526C329.622 327.044 330.659 329.564 331.696 332.083C335.268 340.755 338.87 349.413 342.518 358.054C344.433 362.591 346.34 367.131 348.247 371.671C349.174 373.871 350.105 376.069 351.039 378.265C352.344 381.331 353.635 384.402 354.924 387.475C355.313 388.38 355.703 389.285 356.104 390.218C360.622 401.075 360.299 407.228 355.876 418.174C355.435 419.307 354.995 420.441 354.542 421.609C353.132 425.229 351.696 428.838 350.259 432.447C349.325 434.826 348.394 437.207 347.464 439.588C346.095 443.09 344.724 446.593 343.345 450.092C339.369 460.19 335.572 470.348 331.853 480.543C328.8 477.508 327.622 473.804 326.021 469.889C325.66 469.019 325.299 468.148 324.927 467.252C323.734 464.374 322.549 461.494 321.364 458.614C320.53 456.598 319.696 454.583 318.861 452.568C317.152 448.446 315.446 444.324 313.742 440.2C310.567 432.529 307.356 424.874 304.14 417.22C297.622 401.704 291.14 386.174 284.665 370.641C278.97 356.979 273.259 343.323 267.532 329.675C263.516 320.104 259.51 310.529 255.518 300.948C255.106 299.96 254.694 298.972 254.27 297.953C252.271 293.156 250.273 288.358 248.277 283.56C247.544 281.8 246.811 280.04 246.078 278.279C245.729 277.44 245.38 276.601 245.021 275.736C243.383 271.81 241.725 267.895 240.01 264.001C239.704 263.304 239.398 262.608 239.082 261.89C238.264 260.037 237.438 258.187 236.611 256.337C235.492 253.45 235.492 253.45 235.492 250.221Z" fill="#F3F3F3"/>
<path d="M475.852 250.221C486.199 250.25 495.583 251.602 505.558 254.324C506.544 254.591 507.529 254.858 508.545 255.134C525.894 260.079 542.007 268.32 551.1 284.46C554.916 291.761 555.087 297.8 555.092 305.918C555.105 306.955 555.119 307.993 555.132 309.062C555.158 321.775 551.701 334.276 542.641 343.722C541.34 344.877 540.009 345.999 538.649 347.085C537.976 347.633 537.303 348.181 536.61 348.746C523.974 358.035 508.397 361.094 493.175 363.229C494.393 363.4 495.612 363.57 496.867 363.746C518.917 367.007 540.525 373.301 555.354 390.956C564.147 403.414 565.233 418.596 563.052 433.33C559.905 446.248 551.994 457.428 540.56 464.373C524.501 472.71 509.946 475.432 492.092 475.161C493.831 474.009 495.572 472.859 497.324 471.727C507.236 464.905 513.049 454.676 515.473 442.998C518.844 421.804 520.28 398.173 507.914 379.567C502.377 372.13 497.283 368.679 488.489 365.428C485.596 364.305 485.596 364.305 482.348 362.153C483.487 361.66 483.487 361.66 484.649 361.157C495.392 356.005 501.412 348.724 505.491 337.6C511.967 315.352 512.286 289.99 501.401 269.186C495.324 259.275 486.964 254.274 475.852 251.297C475.852 250.942 475.852 250.587 475.852 250.221Z" fill="#F2F2F2"/>
</g>
<defs>
<clipPath id="clip0_893_8">
<rect width="576" height="508" fill="white" transform="translate(72 106)"/>
</clipPath>
</defs>
</svg>
